<?xml version="1.0" encoding="UTF-8" standalone="no"?>
<!-- Created with Inkscape (http://www.inkscape.org/) -->

<svg
   xmlns:dc="http://purl.org/dc/elements/1.1/"
   xmlns:cc="http://creativecommons.org/ns#"
   xmlns:rdf="http://www.w3.org/1999/02/22-rdf-syntax-ns#"
   xmlns:svg="http://www.w3.org/2000/svg"
   xmlns="http://www.w3.org/2000/svg"
   xmlns:sodipodi="http://sodipodi.sourceforge.net/DTD/sodipodi-0.dtd"
   xmlns:inkscape="http://www.inkscape.org/namespaces/inkscape"
   width="290"
   height="380"
   id="svg2"
   version="1.1"
   inkscape:version="0.91pre2 r13516"
   viewBox="0 0 290 380.00001"
   sodipodi:docname="drawing.svg">
  <defs
     id="defs4" />
  <sodipodi:namedview
     id="base"
     pagecolor="#ffffff"
     bordercolor="#666666"
     borderopacity="1.0"
     inkscape:pageopacity="0.0"
     inkscape:pageshadow="2"
     inkscape:zoom="0.94"
     inkscape:cx="198.16664"
     inkscape:cy="93.158511"
     inkscape:document-units="px"
     inkscape:current-layer="layer1"
     showgrid="false"
     inkscape:window-width="1920"
     inkscape:window-height="1018"
     inkscape:window-x="-8"
     inkscape:window-y="560"
     inkscape:window-maximized="1" />
  <metadata
     id="metadata7">
    <rdf:RDF>
      <cc:Work
         rdf:about="">
        <dc:format>image/svg+xml</dc:format>
        <dc:type
           rdf:resource="http://purl.org/dc/dcmitype/StillImage" />
        <dc:title></dc:title>
      </cc:Work>
    </rdf:RDF>
  </metadata>
  <g
     inkscape:label="Layer 1"
     inkscape:groupmode="layer"
     id="layer1"
     transform="translate(0,-672.36219)">
    <g
       transform="translate(-7.3563764e-6,0)"
       style="font-style:normal;font-weight:normal;font-size:40px;line-height:125%;font-family:sans-serif;letter-spacing:0px;word-spacing:0px;fill:#000000;fill-opacity:1;stroke:none;stroke-width:1px;stroke-linecap:butt;stroke-linejoin:miter;stroke-opacity:1"
       id="flowRoot3341" />
    <g
       transform="translate(7.3563763e-6,0)"
       style="font-style:normal;font-weight:normal;font-size:40px;line-height:125%;font-family:sans-serif;letter-spacing:0px;word-spacing:0px;fill:#000000;fill-opacity:1;stroke:none;stroke-width:1px;stroke-linecap:butt;stroke-linejoin:miter;stroke-opacity:1"
       id="text3337" />
    <g
       style="font-style:normal;font-weight:normal;font-size:40px;line-height:125%;font-family:sans-serif;letter-spacing:0px;word-spacing:0px;fill:#000000;fill-opacity:1;stroke:none;stroke-width:1px;stroke-linecap:butt;stroke-linejoin:miter;stroke-opacity:1"
       id="text3351" />
    <g
       style="font-style:normal;font-weight:normal;font-size:40px;line-height:125%;font-family:sans-serif;letter-spacing:0px;word-spacing:0px;fill:#000000;fill-opacity:1;stroke:none;stroke-width:1px;stroke-linecap:butt;stroke-linejoin:miter;stroke-opacity:1"
       id="flowRoot3363" />
    <path
       d="m 83.060242,1044.1052 0,-6.3909 17.819148,-0.025 c 18.34759,-0.026 25.44988,-0.9086 27.00104,-3.3551 0.49054,-0.7737 0.89925,-4.8093 0.9082,-8.9681 l 0.0163,-7.5614 -11.7682,-0.7446 c -20.753568,-1.3132 -32.687298,-4.1838 -46.747208,-11.2448 -17.69823,-8.88811 -33.04838,-22.74927 -41.85666,-37.79646 -15.34068,-26.20649 -19.0813401,-70.56584 -8.71581,-103.35829 3.2281,-10.21245 10.56716,-24.78404 17.24175,-34.23326 7.07115,-10.01062 21.71541,-24.74683 30.90675,-31.10079 10.87331,-7.51672 33.461678,-18.1086 48.966098,-22.96064 l 13.02673,-4.07665 -0.0106,-11.70213 c -0.0216,-23.8898 -2.68244,-51.28103 -5.60451,-57.69428 l -1.24479,-2.73202 -24.223638,0.72213 c -54.4134,1.62211 -79.67732,8.12204 -89.5490801,23.03927 -2.78996,4.21591 -5.55679,5.42385 -6.54211,2.85614 -0.55635,-1.44982 10.6317301,-45.53668 12.3895101,-48.82113 1.24755,-2.33106 -0.27728,-2.31281 30.75309,-0.36801 13.75,0.86177 36.48936,2.05485 50.53191,2.65128 29.141688,1.23775 140.757648,1.30974 171.808508,0.11082 11.40958,-0.44054 21.20869,-0.39093 21.77581,0.11024 1.29997,1.1488 -1.67233,22.19122 -5.00606,35.44059 -2.80775,11.15892 -4.55397,12.45739 -8.30556,6.17592 -3.43836,-5.75703 -8.39009,-10.83297 -12.77249,-13.09288 -4.92393,-2.53918 -16.74552,-4.93951 -31.33,-6.36145 -15.64992,-1.52582 -62.43148,-2.53402 -64.06163,-1.3806 -0.94039,0.66536 -1.49662,9.69801 -2.02843,32.93981 l -0.73275,32.02305 36.07098,0.55261 c 33.89458,0.51926 39.96038,0.99889 51.23056,4.05087 5.47954,1.48387 5.40675,0.69261 2.27115,24.68686 -2.36082,18.06544 -3.49052,21.52292 -5.93859,18.175 -0.76216,-1.04233 -1.38575,-3.01952 -1.38575,-4.39376 0,-1.37425 -0.92593,-4.31359 -2.05761,-6.53186 -6.28519,-12.31999 -29.96635,-20.29761 -65.55407,-22.08361 l -13.97765,-0.70147 -0.72981,36.58983 c -0.98895,49.58281 -1.03891,186.71117 -0.0686,188.28117 0.55376,0.8959 3.47175,1.0888 10.03744,0.6635 16.48366,-1.068 41.97222,-11.42963 43.73897,-17.78092 1.93576,-6.9589 0.30735,-66.23222 -2.06046,-74.99944 l -0.86194,-3.19149 -23.32889,-0.53191 -23.32888,-0.53192 0,-3.7234 0,-3.72341 10.10638,-0.66011 c 5.55851,-0.36307 31.76862,-1.02311 58.24468,-1.46676 l 48.1383,-0.80665 0,4.24921 0,4.24922 -15.5921,0.7723 c -8.57565,0.42476 -16.23522,1.01909 -17.02128,1.32072 -1.16233,0.44604 -1.42914,8.25095 -1.42914,41.80558 l 0,41.25715 -3.98937,0.73716 c -2.19415,0.40545 -11.88829,3.76014 -21.54255,7.45491 -24.62513,9.42416 -34.81896,12.34406 -55.58511,15.92186 -4.75109,0.8185 -4.8902,1.7055 -1.82434,11.6317 1.44899,4.6912 2.9443,7.4393 4.52128,8.309 1.55368,0.8568 9.71081,1.4483 23.94822,1.7365 l 21.59196,0.437 -0.31536,5.9937 -0.31537,5.9937 -67.81915,0.2738 -67.819148,0.2738 0,-6.3908 z M 127.69313,1001.81 c -0.11115,-4.31534 1.13258,-120.70513 1.78643,-167.17672 l 0.70943,-50.42148 -3.08565,0.75772 c -14.96129,3.67397 -34.642658,15.59478 -48.361248,29.29194 -22.56338,22.52814 -32.91907,48.65679 -32.90663,83.02733 0.007,19.1062 5.44103,41.85342 13.40711,56.1223 11.92916,21.36755 33.35635,39.02412 57.328308,47.24001 10.14568,3.4772 11.18476,3.5855 11.12225,1.1589 z"
       id="path3399"
       inkscape:connector-curvature="0"
       style="fill:#000000" />
  </g>
</svg>
